<?xml version="1.0" encoding="utf-8"?>
<svg width="128px" height="128px" viewBox="0 0 92 96" version="1.1" xmlns="http://www.w3.org/2000/svg" xmlns:bx="https://boxy-svg.com">
  <defs>
    <bx:guide x="45.54584571550376" y="6.181964345598516" angle="0"/>
    <bx:guide x="128.95380785064063" y="14.501959302190244" angle="0"/>
    <linearGradient id="a">
      <stop offset="0" style="stop-color: rgba(163, 0, 0, 0.643);"/>
      <stop stop-color="#b10000" offset="1"/>
    </linearGradient>
    <linearGradient id="k" x1="371.65" x2="381.72" y1="545.58" y2="514.35" gradientUnits="userSpaceOnUse" href="#a"/>
    <linearGradient id="j" x1="371.65" x2="361.61" y1="545.58" y2="576.75" gradientUnits="userSpaceOnUse" href="#a"/>
    <linearGradient id="i" x1="388.03" x2="361.6" y1="595.93" y2="576.74" gradientUnits="userSpaceOnUse" href="#a"/>
    <linearGradient id="h" x1="388.03" x2="414.41" y1="595.93" y2="615.09" gradientUnits="userSpaceOnUse" href="#a"/>
    <linearGradient id="g" x1="440.98" x2="414.41" y1="595.74" y2="615.09" gradientUnits="userSpaceOnUse" href="#a"/>
    <linearGradient id="f" x1="440.98" x2="467.57" y1="595.74" y2="576.41" gradientUnits="userSpaceOnUse" href="#a"/>
    <linearGradient id="e" x1="457.39" x2="467.61" y1="545.47" y2="576.53" gradientUnits="userSpaceOnUse" href="#a"/>
    <linearGradient id="d" x1="457.39" x2="447.39" y1="545.47" y2="514.04" gradientUnits="userSpaceOnUse" href="#a"/>
    <linearGradient id="c" x1="414.41" x2="447.06" y1="514.19" y2="514.04" gradientUnits="userSpaceOnUse" href="#a"/>
    <linearGradient id="b" x1="414.41" x2="381.62" y1="514.19" y2="514.68" gradientUnits="userSpaceOnUse" href="#a"/>
    <linearGradient id="a-1" x1="414.41" x2="381.62" y1="514.19" y2="514.68" gradientUnits="userSpaceOnUse" href="#a"/>
    <linearGradient id="a-2" x1="414.41" x2="447.06" y1="514.19" y2="514.04" gradientUnits="userSpaceOnUse" href="#a"/>
    <linearGradient id="a-3" x1="457.39" x2="447.39" y1="545.47" y2="514.04" gradientUnits="userSpaceOnUse" href="#a"/>
    <linearGradient id="a-4" x1="457.39" x2="467.61" y1="545.47" y2="576.53" gradientUnits="userSpaceOnUse" href="#a"/>
    <linearGradient id="a-5" x1="440.98" x2="467.57" y1="595.74" y2="576.41" gradientUnits="userSpaceOnUse" href="#a"/>
    <linearGradient id="a-6" x1="440.98" x2="414.41" y1="595.74" y2="615.09" gradientUnits="userSpaceOnUse" href="#a"/>
    <linearGradient id="a-7" x1="388.03" x2="414.41" y1="595.93" y2="615.09" gradientUnits="userSpaceOnUse" href="#a"/>
    <linearGradient id="a-8" x1="388.03" x2="361.6" y1="595.93" y2="576.74" gradientUnits="userSpaceOnUse" href="#a"/>
    <linearGradient id="a-9" x1="371.65" x2="361.61" y1="545.58" y2="576.75" gradientUnits="userSpaceOnUse" href="#a"/>
    <linearGradient id="a-10" x1="371.65" x2="381.72" y1="545.58" y2="514.35" gradientUnits="userSpaceOnUse" href="#a"/>
    <bx:export>
      <bx:file format="png" path="icon.png" width="128" height="128"/>
      <bx:file format="png" path="robot_panel_dark.png" background="#fff" width="29" height="30"/>
      <bx:file format="png" path="robot_panel_light.png" width="29" height="30"/>
    </bx:export>
    <linearGradient id="a-11" x1="414.41" x2="381.62" y1="514.19" y2="514.68" gradientUnits="userSpaceOnUse" href="#a"/>
    <linearGradient id="a-12" x1="414.41" x2="447.06" y1="514.19" y2="514.04" gradientUnits="userSpaceOnUse" href="#a"/>
    <linearGradient id="a-13" x1="457.39" x2="447.39" y1="545.47" y2="514.04" gradientUnits="userSpaceOnUse" href="#a"/>
    <linearGradient id="a-14" x1="457.39" x2="467.61" y1="545.47" y2="576.53" gradientUnits="userSpaceOnUse" href="#a"/>
    <linearGradient id="a-15" x1="440.98" x2="467.57" y1="595.74" y2="576.41" gradientUnits="userSpaceOnUse" href="#a"/>
    <linearGradient id="a-16" x1="440.98" x2="414.41" y1="595.74" y2="615.09" gradientUnits="userSpaceOnUse" href="#a"/>
    <linearGradient id="a-17" x1="388.03" x2="414.41" y1="595.93" y2="615.09" gradientUnits="userSpaceOnUse" href="#a"/>
    <linearGradient id="a-18" x1="388.03" x2="361.6" y1="595.93" y2="576.74" gradientUnits="userSpaceOnUse" href="#a"/>
    <linearGradient id="a-19" x1="371.65" x2="361.61" y1="545.58" y2="576.75" gradientUnits="userSpaceOnUse" href="#a"/>
    <linearGradient id="a-20" x1="371.65" x2="381.72" y1="545.58" y2="514.35" gradientUnits="userSpaceOnUse" href="#a"/>
  </defs>
  <title>Group Copy 2</title>
  <g id="Page-1" stroke="none" stroke-width="1" fill="none" fill-rule="evenodd">
    <title>head</title>
    <path stroke-width="0" d="M 42.222 19.218 C 44.708 18.936 47.464 19.029 50.664 19.218 C 54.496 19.444 60.476 19.883 63.823 20.708 C 66.291 21.316 67.835 22.007 69.534 23.067 C 71.2 24.107 72.729 25.573 73.941 26.977 C 75.078 28.295 75.892 29.688 76.672 31.198 C 77.471 32.745 78.102 34.294 78.658 36.164 C 79.291 38.287 79.859 40.942 80.148 43.364 C 80.437 45.783 80.49 48.54 80.396 50.688 C 80.317 52.514 80.158 53.92 79.776 55.53 C 79.382 57.189 78.814 58.861 78.038 60.496 C 77.221 62.215 76.056 64.124 74.934 65.586 C 73.91 66.919 72.786 68.018 71.644 69 C 70.567 69.925 69.651 70.644 68.293 71.358 C 66.685 72.204 64.332 73.119 62.458 73.593 C 60.743 74.027 59.475 74.098 57.492 74.214 C 54.963 74.361 51.865 74.319 48.305 74.214 C 43.927 74.084 36.541 73.914 32.912 73.345 C 30.523 72.969 29.468 72.692 27.698 71.855 C 25.691 70.906 22.692 68.697 21.553 67.696 C 20.924 67.144 20.886 66.803 20.497 66.393 C 20.101 65.974 19.696 65.784 19.194 65.213 C 18.467 64.386 17.326 62.918 16.587 61.613 C 15.83 60.275 15.116 58.671 14.725 57.268 C 14.368 55.989 14.528 54.853 14.228 53.544 C 13.896 52.096 13.012 50.58 12.739 48.95 C 12.451 47.238 12.444 45.164 12.614 43.488 C 12.77 41.961 12.954 40.786 13.608 39.267 C 14.407 37.407 16.49 35.207 17.456 33.184 C 18.347 31.318 18.407 29.226 19.318 27.598 C 20.19 26.039 21.476 24.646 22.732 23.563 C 23.911 22.546 25.367 21.749 26.58 21.205 C 27.625 20.736 28.512 20.522 29.56 20.336 C 30.658 20.14 31.879 20.046 33.036 20.087 C 34.196 20.128 35.178 20.659 36.512 20.584 C 38.151 20.492 40.073 19.462 42.222 19.218 Z" style="stroke-width: 2px; fill: rgb(233, 231, 239);"/>
    <g id="icon-copy" transform="translate(-34, -40)" fill="#24292F">
      <g id="Group-Copy-2" transform="translate(34, 40.5)">
        <g style="" transform="matrix(0.85593, 0, 0, 0.729166, 7.259196, 5.414602)">
          <path d="M65.4492701,16.3 C76.3374701,16.3 85.1635558,25.16479 85.1635558,36.1 L85.1635558,42.7 L90.9027661,54.1647464 C91.4694141,55.2966923 91.4668177,56.6300535 90.8957658,57.7597839 L85.1635558,69.1 L85.1635558,75.7 C85.1635558,86.63554 76.3374701,95.5 65.4492701,95.5 L26.0206986,95.5 C15.1328272,95.5 6.30641291,86.63554 6.30641291,75.7 L6.30641291,69.1 L0.448507752,57.7954874 C-0.14693501,56.6464093 -0.149634367,55.2802504 0.441262896,54.1288283 L6.30641291,42.7 L6.30641291,36.1 C6.30641291,25.16479 15.1328272,16.3 26.0206986,16.3 L65.4492701,16.3 Z M62.9301895,22 L29.189529,22 C19.8723267,22 12.3191987,29.5552188 12.3191987,38.875 L12.3191987,44.5 L7.44288578,53.9634655 C6.84794449,55.1180686 6.85066096,56.4896598 7.45017099,57.6418974 L12.3191987,67 L12.3191987,72.625 C12.3191987,81.9450625 19.8723267,89.5 29.189529,89.5 L62.9301895,89.5 C72.2476729,89.5 79.8005198,81.9450625 79.8005198,72.625 L79.8005198,67 L84.5682187,57.6061395 C85.1432011,56.473244 85.1458141,55.1345713 84.5752587,53.9994398 L79.8005198,44.5 L79.8005198,38.875 C79.8005198,29.5552188 72.2476729,22 62.9301895,22 Z" id="Combined-Shape" fill-rule="nonzero" style="paint-order: stroke; fill: rgb(233, 231, 239);"/>
          <rect id="Rectangle-Copy" stroke-width="8" x="31" y="44.5" width="5" height="22" rx="2.5" style="fill: rgb(43, 43, 44); stroke: rgb(0, 0, 0);"/>
          <rect id="Rectangle-Copy-2" stroke-width="8" x="55" y="44.5" width="5" height="22" rx="2.5" style="fill: rgb(46, 46, 47); stroke: rgb(0, 0, 0);"/>
        </g>
      </g>
    </g>
  </g>
  <g transform="matrix(0.066707, 0, 0, 0.066707, 18.074047, -27.257264)">
    <title>top-star</title>
    <path d="m498.69 674.7-84.295-59.618-83.476 59.917 30.694-98.251-82.822-61.216 102.83-0.84976 32.723-98.006 32.995 98.208 102.91 0.16249-82.679 61.368z" fill="#f00"/>
    <path d="m414.32 559.35-32.709-44.666 32.501-100.82z" fill="url(#b)"/>
    <path d="m447.16 514.36-32.749 45.109-0.29578-145.61z" fill="url(#c)"/>
    <path d="m553.05 514.25-105.89 0.10868-32.552 45.08z" fill="url(#d)"/>
    <path d="m467.57 576.41-52.955-16.975 138.44-45.189z" fill="url(#e)"/>
    <path d="m414.41 559.37 53.192 17.159 33.16 100.85z" fill="url(#f)"/>
    <path d="m414.41 615.06-0.0884-55.718 86.441 118.04z" fill="url(#g)"/>
    <path d="m414.61 559.44-85.304 117.51 85.085-61.871z" fill="url(#h)"/>
    <path d="m361.61 576.74 52.802-17.2-85.107 117.41z" fill="url(#i)"/>
    <path d="m414.41 559.54-138.04-44.691 85.234 61.891z" fill="url(#j)"/>
    <path d="m381.38 514.35 33.072 45.141-138.07-44.645z" fill="url(#k)"/>
  </g>
  <g transform="matrix(1, 0, 0, 1, -8.021347, 0.572945)">
    <title>hand</title>
    <ellipse style="stroke-width: 5px; fill: rgb(233, 231, 239); stroke: rgb(233, 231, 239);" cx="21.879" cy="85.247" rx="10.982" ry="7.162"/>
    <g transform="matrix(0.038442, 0, 0, 0.038442, 5.559817, 63.889794)" style="">
      <path d="m498.69 674.7-84.295-59.618-83.476 59.917 30.694-98.251-82.822-61.216 102.83-0.84976 32.723-98.006 32.995 98.208 102.91 0.16249-82.679 61.368z" style="stroke: rgb(202, 203, 210);" fill="#f00"/>
      <path d="m414.32 559.35-32.709-44.666 32.501-100.82z" style="stroke: rgb(202, 203, 210);" fill="url(#a-1)"/>
      <path d="m447.16 514.36-32.749 45.109-0.29578-145.61z" style="stroke: rgb(202, 203, 210);" fill="url(#a-2)"/>
      <path d="m553.05 514.25-105.89 0.10868-32.552 45.08z" style="stroke: rgb(202, 203, 210);" fill="url(#a-3)"/>
      <path d="m467.57 576.41-52.955-16.975 138.44-45.189z" style="stroke: rgb(202, 203, 210);" fill="url(#a-4)"/>
      <path d="m414.41 559.37 53.192 17.159 33.16 100.85z" style="stroke: rgb(202, 203, 210);" fill="url(#a-5)"/>
      <path d="m414.41 615.06-0.0884-55.718 86.441 118.04z" style="stroke: rgb(202, 203, 210);" fill="url(#a-6)"/>
      <path d="m414.61 559.44-85.304 117.51 85.085-61.871z" style="stroke: rgb(202, 203, 210);" fill="url(#a-7)"/>
      <path d="m361.61 576.74 52.802-17.2-85.107 117.41z" style="stroke: rgb(202, 203, 210);" fill="url(#a-8)"/>
      <path d="m414.41 559.54-138.04-44.691 85.234 61.891z" style="stroke: rgb(202, 203, 210);" fill="url(#a-9)"/>
      <path d="m381.38 514.35 33.072 45.141-138.07-44.645z" style="stroke: rgb(202, 203, 210);" fill="url(#a-10)"/>
    </g>
  </g>
  <g transform="matrix(1, 0, 0, 1, 56.627252, 0.930736)">
    <title>hand</title>
    <ellipse style="stroke-width: 5px; fill: rgb(233, 231, 239); stroke: rgb(233, 231, 239);" cx="21.879" cy="85.247" rx="10.982" ry="7.162"/>
    <g transform="matrix(0.038442, 0, 0, 0.038442, 5.792221, 64.119241)" style="">
      <path d="m498.69 674.7-84.295-59.618-83.476 59.917 30.694-98.251-82.822-61.216 102.83-0.84976 32.723-98.006 32.995 98.208 102.91 0.16249-82.679 61.368z" style="stroke: rgb(202, 203, 210);" fill="#f00"/>
      <path d="m414.32 559.35-32.709-44.666 32.501-100.82z" style="stroke: rgb(202, 203, 210);" fill="url(#a-11)"/>
      <path d="m447.16 514.36-32.749 45.109-0.29578-145.61z" style="stroke: rgb(202, 203, 210);" fill="url(#a-12)"/>
      <path d="m553.05 514.25-105.89 0.10868-32.552 45.08z" style="stroke: rgb(202, 203, 210);" fill="url(#a-13)"/>
      <path d="m467.57 576.41-52.955-16.975 138.44-45.189z" style="stroke: rgb(202, 203, 210);" fill="url(#a-14)"/>
      <path d="m414.41 559.37 53.192 17.159 33.16 100.85z" style="stroke: rgb(202, 203, 210);" fill="url(#a-15)"/>
      <path d="m414.41 615.06-0.0884-55.718 86.441 118.04z" style="stroke: rgb(202, 203, 210);" fill="url(#a-16)"/>
      <path d="m414.61 559.44-85.304 117.51 85.085-61.871z" style="stroke: rgb(202, 203, 210);" fill="url(#a-17)"/>
      <path d="m361.61 576.74 52.802-17.2-85.107 117.41z" style="stroke: rgb(202, 203, 210);" fill="url(#a-18)"/>
      <path d="m414.41 559.54-138.04-44.691 85.234 61.891z" style="stroke: rgb(202, 203, 210);" fill="url(#a-19)"/>
      <path d="m381.38 514.35 33.072 45.141-138.07-44.645z" style="stroke: rgb(202, 203, 210);" fill="url(#a-20)"/>
    </g>
  </g>
</svg>